#!OML:ASF F:\VICON\USERDATA\INSTALL\rory3\rory3.ASF
:FULLY-SPECIFIED
:DEGREES
1514
root 2.73579 17.702 12.552 -176.305 1.08532 178.328
lowerback 2.04241 -0.382867 -2.15105
upperback -0.492518 -0.538692 1.36506
thorax -1.61739 -0.238337 2.62642
lowerneck -20.6043 -0.575173 -7.48283
upperneck 36.6682 6.56518 -2.14011
head 16.6974 2.42194 1.99779
rclavicle -3.32964e-015 -1.43125e-014
rhumerus -29.9324 -2.67952 -83.0261
rradius 34.0575
rwrist 20.4393
rhand -22.1698 1.71122
rfingers 7.12502
rthumb 4.24481 -28.2262
lclavicle -3.32964e-015 -1.43125e-014
lhumerus -34.1109 16.5387 79.3896
lradius 22.8612
lwrist -17.7709
lhand -10.4747 26.7086
lfingers 7.12502
lthumb 15.5265 56.1052
rfemur -13.703 4.69006 22.9202
rtibia 31.4697
rfoot -18.5105 -0.472962
rtoes 17.1772
lfemur -12.3836 5.05864 -21.4248
ltibia 32.1495
lfoot -16.2731 5.52512
ltoes -11.3696
1515
root 2.73406 17.701 12.5495 -176.236 1.12844 178.314
lowerback 1.89119 -0.373259 -2.18759
upperback -0.566587 -0.523821 1.37686
thorax -1.60906 -0.229659 2.65771
lowerneck -20.5135 -0.535443 -7.35817
upperneck 36.6751 6.64852 -2.27947
head 16.6893 2.46332 1.93218
rclavicle -4.32357e-015 -3.97569e-015
rhumerus -30.1101 -2.68871 -82.9645
rradius 33.9555
rwrist 20.4325
rhand -22.1076 1.90016
rfingers 7.12502
rthumb 4.30484 -28.0361
lclavicle -4.32357e-015 -3.97569e-015
lhumerus -34.0869 16.1587 79.5905
lradius 22.9199
lwrist -17.5489
lhand -10.6583 26.3964
lfingers 7.12502
lthumb 15.3497 55.8067
rfemur -13.8071 4.74026 22.8919
rtibia 31.5246
rfoot -18.5198 -0.504671
rtoes 16.9859
lfemur -12.1086 4.90126 -21.4911
ltibia 31.5213
lfoot -15.7179 5.76248
ltoes -10.4914
1516
root 2.73 17.6973 12.5433 -176.248 1.05477 178.225
lowerback 1.78156 -0.395204 -2.28597
upperback -0.594982 -0.553314 1.39165
thorax -1.57385 -0.243517 2.72838
lowerneck -20.372 -0.475833 -7.24
upperneck 36.5945 6.75821 -2.46413
head 16.6257 2.51104 1.84871
rclavicle -1.66482e-015 -2.50469e-014
rhumerus -30.27 -2.79516 -82.8205
rradius 33.8167
rwrist 20.511
rhand -22.1161 2.21429
rfingers 7.12502
rthumb 4.29664 -27.7221
lclavicle -1.66482e-015 -2.50469e-014
lhumerus -34.0647 16.0419 79.7497
lradius 23.0214
lwrist -17.5963
lhand -10.4753 26.1669
lfingers 7.12502
lthumb 15.5259 55.5636
rfemur -13.8173 4.66212 22.7939
rtibia 31.5925
rfoot -18.6004 -0.52498
rtoes 16.8297
lfemur -11.7693 4.68777 -21.6449
ltibia 30.8589
lfoot -15.3928 6.09956
ltoes -10.2404
1517
root 2.72115 17.6906 12.5301 -176.236 0.936331 178.352
lowerback 1.58442 -0.464842 -2.12641
upperback -0.624681 -0.634739 1.49822
thorax -1.48886 -0.284955 2.74877
lowerneck -20.2507 -0.409156 -7.36284
upperneck 36.5693 6.90392 -2.4415
head 16.5755 2.56865 1.90583
rclavicle -4.05024e-015 8.74653e-015
rhumerus -30.4654 -2.84337 -82.6283
rradius 33.7367
rwrist 20.6484
rhand -22.0686 2.04474
rfingers 7.12502
rthumb 4.34256 -27.8907
lclavicle -4.05024e-015 8.74653e-015
lhumerus -34.1413 15.9112 79.9959
lradius 23.3601
lwrist -17.3277
lhand -10.103 26.3731
lfingers 7.12502
lthumb 15.8845 55.7416
rfemur -13.8212 4.46227 22.9101
rtibia 31.6931
rfoot -18.6499 -0.448372
rtoes 16.6956
lfemur -11.4505 4.46866 -21.5713
ltibia 30.1997
lfoot -15.3893 6.60177
ltoes -10.2953
1518
root 2.71048 17.6856 12.52 -176.231 0.826115 178.408
lowerback 1.45284 -0.52866 -2.04372
upperback -0.661154 -0.712453 1.58348
thorax -1.44739 -0.323345 2.79081
lowerneck -20.2617 -0.358695 -7.48663
upperneck 36.654 7.05524 -2.39675
head 16.6131 2.62499 1.98087
rclavicle -3.47873e-015 -7.15625e-015
rhumerus -30.5985 -2.82073 -82.4431
rradius 33.5679
rwrist 20.6651
rhand -22.1039 2.02911
rfingers 7.12502
rthumb 4.30839 -27.9071
lclavicle -3.47873e-015 -7.15625e-015
lhumerus -34.1956 15.5644 80.3526
lradius 23.7613
lwrist -16.9491
lhand -9.82962 26.6959
lfingers 7.12502
lthumb 16.1477 56.0433
rfemur -13.8373 4.3091 22.9408
rtibia 31.8117
rfoot -18.7323 -0.422981
rtoes 16.1834
lfemur -11.1302 4.10021 -21.5709
ltibia 29.5652
lfoot -15.4969 7.18654
ltoes -10.6405
1519
root 2.70257 17.6779 12.5152 -176.238 0.720325 178.469
lowerback 1.3597 -0.57507 -2.02613
upperback -0.682589 -0.768668 1.68576
thorax -1.41239 -0.350284 2.88669
lowerneck -20.257 -0.3056 -7.46709
upperneck 36.707 7.20582 -2.49073
head 16.6441 2.68269 1.9699
rclavicle -3.57812e-015 3.57812e-014
rhumerus -30.6746 -2.77975 -82.2764
rradius 33.3804
rwrist 20.5983
rhand -22.1474 2.11724
rfingers 7.12502
rthumb 4.26639 -27.8198
lclavicle -3.57812e-015 3.57812e-014
lhumerus -34.1503 15.3172 80.7142
lradius 24.0115
lwrist -16.6857
lhand -9.98347 26.5495
lfingers 7.12502
lthumb 15.9996 55.9088
rfemur -13.8574 4.27443 22.9998
rtibia 31.9065
rfoot -18.7972 -0.523139
rtoes 15.4127
lfemur -10.8192 3.82072 -21.566
ltibia 29.0246
lfoot -15.5979 7.6673
ltoes -12.1004
1520
root 2.69506 17.6748 12.5108 -176.151 0.618131 178.497
lowerback 1.16496 -0.628949 -2.00643
upperback -0.728493 -0.834055 1.7572
thorax -1.34517 -0.382233 2.94849
lowerneck -20.2183 -0.225958 -7.39515
upperneck 36.7583 7.38365 -2.59985
head 16.6678 2.75924 1.94817
rclavicle 2.03754e-015 6.36111e-015
rhumerus -30.7742 -2.8298 -82.1429
rradius 33.1913
rwrist 20.5944
rhand -22.1282 1.93397
rfingers 7.12502
rthumb 4.28502 -28.0027
lclavicle 2.03754e-015 6.36111e-015
lhumerus -34.0821 15.1598 80.9828
lradius 24.2057
lwrist -16.5523
lhand -10.2683 26.1229
lfingers 7.12502
lthumb 15.7253 55.504
rfemur -13.9717 4.27446 23.0061
rtibia 31.9941
rfoot -18.8818 -0.621946
rtoes 15.3709
lfemur -10.6144 3.54247 -21.6274
ltibia 28.552
lfoot -15.7109 8.07004
ltoes -12.0352
1521
root 2.68851 17.6738 12.5058 -176.077 0.399579 178.536
lowerback 1.0385 -0.681104 -1.96172
upperback -0.806167 -0.897806 1.80903
thorax -1.34954 -0.412258 2.97695
lowerneck -20.1761 -0.190952 -7.37844
upperneck 36.8752 7.48843 -2.59999
head 16.7176 2.81413 1.97188
rclavicle -1.3741e-014 -4.05521e-014
rhumerus -30.9373 -3.16026 -81.9106
rradius 32.911
rwrist 20.7113
rhand -22.1464 1.7675
rfingers 7.12502
rthumb 4.26743 -28.1695
lclavicle -1.3741e-014 -4.05521e-014
lhumerus -34.0525 14.7709 81.3035
lradius 24.4903
lwrist -16.2835
lhand -10.3454 25.9863
lfingers 7.12502
lthumb 15.651 55.3733
rfemur -14.0439 4.29952 23.0389
rtibia 32.0866
rfoot -19.0759 -0.758428
rtoes 15.4821
lfemur -10.4432 3.33511 -21.6554
ltibia 28.1414
lfoot -15.8815 8.25123
ltoes -11.4256
1522
root 2.68387 17.6754 12.5047 -176.034 0.14868 178.576
lowerback 1.0248 -0.726944 -1.92505
upperback -0.905449 -0.955151 1.84128
thorax -1.43999 -0.437762 2.99149
lowerneck -20.1183 -0.172405 -7.24503
upperneck 37.0067 7.56662 -2.68818
head 16.7824 2.86379 1.93305
rclavicle -2.33572e-015 1.90833e-014
rhumerus -31.0967 -3.68824 -81.6562
rradius 32.5441
rwrist 21.1123
rhand -22.1171 1.81133
rfingers 7.12502
rthumb 4.29572 -28.1251
lclavicle -2.33572e-015 1.90833e-014
lhumerus -34.0729 14.1759 81.6613
lradius 24.9252
lwrist -15.784
lhand -10.1664 26.0588
lfingers 7.12502
lthumb 15.8234 55.4321
rfemur -14.1173 4.28388 23.0927
rtibia 32.1513
rfoot -19.2008 -1.05256
rtoes 14.8698
lfemur -10.2821 3.11091 -21.6593
ltibia 27.7907
lfoot -15.9675 8.39528
ltoes -11.2512
1523
root 2.6792 17.6745 12.5073 -175.986 -0.0578762 178.538
lowerback 0.963126 -0.728124 -1.97236
upperback -0.963286 -1.00389 1.86098
thorax -1.46112 -0.480951 3.03964
lowerneck -20.0583 -0.157089 -7.21062
upperneck 37.0955 7.62322 -2.69135
head 16.8152 2.90089 1.94125
rclavicle 2.16924e-014 -1.11319e-014
rhumerus -31.2049 -4.07121 -81.4
rradius 32.2811
rwrist 21.2925
rhand -21.8595 1.72826
rfingers 7.12502
rthumb 4.54444 -28.203
lclavicle 2.16924e-014 -1.11319e-014
lhumerus -34.0227 13.7325 82.0203
lradius 25.3432
lwrist -15.3689
lhand -10.1662 26.1832
lfingers 7.12502
lthumb 15.8236 55.5565
rfemur -14.2064 4.3052 23.0546
rtibia 32.1964
rfoot -19.2747 -1.34701
rtoes 14.4304
lfemur -10.154 2.89653 -21.7453
ltibia 27.4804
lfoot -15.99 8.51985
ltoes -10.9269
1524
root 2.67227 17.6739 12.5016 -175.914 -0.249371 178.435
lowerback 0.780522 -0.771969 -2.11729
upperback -1.00847 -1.06303 1.90055
thorax -1.3979 -0.509806 3.16072
lowerneck -20.0898 -0.123792 -7.23488
upperneck 37.229 7.74647 -2.67909
head 16.8905 2.95513 1.98348
rclavicle -1.04362e-015 -1.51076e-014
rhumerus -31.3307 -4.41303 -81.1119
rradius 32.0377
rwrist 21.4697
rhand -21.8059 1.48832
rfingers 7.12502
rthumb 4.59619 -28.4418
lclavicle -1.04362e-015 -1.51076e-014
lhumerus -33.9005 13.2863 82.4369
lradius 25.6533
lwrist -15.0333
lhand -10.2997 26.4478
lfingers 7.12502
lthumb 15.6951 55.8313
rfemur -14.2688 4.30546 22.9227
rtibia 32.2574
rfoot -19.4176 -1.46056
rtoes 14.4752
lfemur -10.0397 2.70264 -21.8967
ltibia 27.1744
lfoot -15.954 8.51069
ltoes -10.7787
